<svg width="26" height="25" viewBox="0 0 26 25" fill="none" xmlns="http://www.w3.org/2000/svg">
<g clip-path="url(#clip0_36_91017)">
<path d="M13.1484 11.3255C13.0442 11.3151 12.9192 11.3151 12.8046 11.3255C10.3254 11.2422 8.35669 9.21094 8.35669 6.71094C8.35669 4.15885 10.4192 2.08594 12.9817 2.08594C15.5338 2.08594 17.6067 4.15885 17.6067 6.71094C17.5963 9.21094 15.6275 11.2422 13.1484 11.3255Z" stroke="#8DC53E" stroke-width="0.9494" stroke-linecap="round" stroke-linejoin="round"/>
<path d="M7.93994 15.1689C5.41911 16.8564 5.41911 19.6064 7.93994 21.2835C10.8045 23.2002 15.5024 23.2002 18.367 21.2835C20.8879 19.596 20.8879 16.846 18.367 15.1689C15.5129 13.2627 10.8149 13.2627 7.93994 15.1689Z" stroke="#8DC53E" stroke-width="0.9494" stroke-linecap="round" stroke-linejoin="round"/>
</g>
<defs>
<clipPath id="clip0_36_91017">
<rect width="25" height="25" fill="white" transform="translate(0.481689 0.00195312)"/>
</clipPath>
</defs>
</svg>
