<svg width="26" height="25" viewBox="0 0 26 25" fill="none" xmlns="http://www.w3.org/2000/svg">
<g clip-path="url(#clip0_36_91125)">
<path d="M12.9817 2.08887C10.2526 2.08887 8.03381 4.30762 8.03381 7.03678C8.03381 9.71387 10.1276 11.8805 12.8567 11.9743C12.9401 11.9639 13.0234 11.9639 13.0859 11.9743C13.1067 11.9743 13.1171 11.9743 13.138 11.9743C13.1484 11.9743 13.1484 11.9743 13.1588 11.9743C15.8255 11.8805 17.9192 9.71387 17.9296 7.03678C17.9296 4.30762 15.7109 2.08887 12.9817 2.08887Z" fill="#8DC53E"/>
<path d="M18.2734 14.7451C15.3672 12.8076 10.6276 12.8076 7.70052 14.7451C6.3776 15.6305 5.64844 16.8285 5.64844 18.1097C5.64844 19.391 6.3776 20.5785 7.6901 21.4535C9.14844 22.4326 11.0651 22.9222 12.9818 22.9222C14.8984 22.9222 16.8151 22.4326 18.2734 21.4535C19.5859 20.568 20.3151 19.3805 20.3151 18.0889C20.3047 16.8076 19.5859 15.6201 18.2734 14.7451Z" fill="#8DC53E"/>
</g>
<defs>
<clipPath id="clip0_36_91125">
<rect width="25" height="25" fill="white" transform="translate(0.481689 0.00488281)"/>
</clipPath>
</defs>
</svg>
