<svg width="30" height="24" viewBox="0 0 30 24" fill="none" xmlns="http://www.w3.org/2000/svg">
<path fill-rule="evenodd" clip-rule="evenodd" d="M15.0016 0.548185C12.1333 0.548185 9.27162 1.54177 6.9411 3.52844C5.53844 4.7242 4.45435 6.17913 3.70146 7.77234C3.59698 7.76224 3.49529 7.73921 3.38801 7.73921C1.51456 7.73921 0.00610352 9.2717 0.00610352 11.175V15.4213C0.00610352 17.3246 1.51456 18.8571 3.38801 18.8571C3.4953 18.8571 3.59698 18.8335 3.70146 18.824C3.83626 19.1078 3.97574 19.3896 4.13293 19.6664C4.74743 20.7806 6.38915 19.8267 5.7552 18.7236C3.15954 14.156 4.16479 8.36814 8.14151 4.97805C12.1183 1.58787 17.8946 1.58787 21.8714 4.97805C25.8482 8.36814 26.8535 14.1559 24.2578 18.7236L24.2298 18.7709L24.2111 18.8182C24.2111 18.8182 22.9504 21.6515 20.4749 21.6515L17.3413 21.623C17.0475 21.1871 16.5772 20.8834 16.0156 20.8834H13.9956C13.0899 20.8834 12.3613 21.6261 12.3613 22.5463C12.3613 23.1138 12.7158 23.5448 13.527 23.5448L20.4749 23.5454C24.1897 23.5454 25.7963 19.8403 25.8695 19.6688V19.6587C26.0253 19.3843 26.1624 19.1026 26.2963 18.8212C26.4055 18.8313 26.5118 18.8544 26.6242 18.8544C28.4977 18.8544 30.0061 17.3219 30.0061 15.4186V11.1722C30.0061 9.26899 28.4976 7.73648 26.6242 7.73648C26.516 7.73648 26.4138 7.75466 26.3084 7.76961C25.5573 6.1763 24.4764 4.72153 23.0736 3.52568C20.7432 1.53901 17.8695 0.54541 15.001 0.54541L15.0016 0.548185ZM10.9256 6.58465C10.1976 6.53635 9.53255 6.69276 8.95145 7.31443C7.40186 8.97184 6.44456 11.2277 6.44456 13.6301C6.44456 15.6117 7.09643 17.8321 8.19454 17.9131C9.75897 18.0287 12.2277 16.985 15.0065 16.985C17.9512 16.985 20.5497 18.1561 22.0908 17.8789C23.0247 17.7111 23.5708 15.4431 23.5708 13.6301C23.5708 11.2277 22.6111 8.97184 21.0615 7.31443C19.5119 5.65696 17.3711 7.31443 15.0065 7.31443C13.5286 7.31443 12.1389 6.66558 10.9256 6.58465ZM10.5786 10.6693C11.4424 10.6697 12.1427 11.3811 12.1429 12.2587C12.1427 13.1364 11.4424 13.8477 10.5786 13.848C9.7147 13.8477 9.01447 13.1364 9.01419 12.2587C9.01447 11.3811 9.7147 10.6697 10.5786 10.6693ZM19.4345 10.6693C20.2984 10.6697 20.9986 11.3811 20.999 12.2587C20.9986 13.1364 20.2984 13.8477 19.4345 13.848C18.5707 13.8477 17.8705 13.1364 17.8702 12.2587C17.8705 11.3811 18.5707 10.6697 19.4345 10.6693Z" fill="#4D4D4D"/>
</svg>
