<svg width="26" height="25" viewBox="0 0 26 25" fill="none" xmlns="http://www.w3.org/2000/svg">
<path d="M9.57707 2.08789C6.8479 2.08789 4.62915 4.30664 4.62915 7.03581C4.62915 9.71289 6.7229 11.8796 9.45207 11.9733C9.5354 11.9629 9.61873 11.9629 9.68123 11.9733C9.70207 11.9733 9.71248 11.9733 9.73332 11.9733C9.74373 11.9733 9.74373 11.9733 9.75415 11.9733C12.4208 11.8796 14.5146 9.71289 14.525 7.03581C14.525 4.30664 12.3062 2.08789 9.57707 2.08789Z" fill="#8DC53E"/>
<path d="M14.8688 14.7441C11.9625 12.8066 7.22294 12.8066 4.29586 14.7441C2.97294 15.6296 2.24377 16.8275 2.24377 18.1087C2.24377 19.39 2.97294 20.5775 4.28544 21.4525C5.74377 22.4316 7.66044 22.9212 9.57711 22.9212C11.4938 22.9212 13.4104 22.4316 14.8688 21.4525C16.1813 20.5671 16.9104 19.3796 16.9104 18.0879C16.9 16.8066 16.1813 15.6191 14.8688 14.7441Z" fill="#8DC53E"/>
<path d="M21.025 7.64976C21.1917 9.6706 19.7542 11.4414 17.7646 11.681C17.7542 11.681 17.7542 11.681 17.7438 11.681H17.7125C17.65 11.681 17.5875 11.681 17.5354 11.7018C16.525 11.7539 15.5979 11.431 14.9 10.8373C15.9729 9.87893 16.5875 8.44143 16.4625 6.87893C16.3896 6.03518 16.0979 5.26435 15.6604 4.6081C16.0563 4.41018 16.5146 4.28518 16.9834 4.24351C19.025 4.06643 20.8479 5.58726 21.025 7.64976Z" fill="#8DC53E"/>
<path d="M23.1084 17.2852C23.025 18.2957 22.3792 19.1707 21.2959 19.7644C20.2542 20.3373 18.9417 20.6082 17.6396 20.5769C18.3896 19.8998 18.8271 19.0561 18.9104 18.1602C19.0146 16.8686 18.4 15.629 17.1709 14.6394C16.4729 14.0873 15.6604 13.6498 14.775 13.3269C17.0771 12.6602 19.9729 13.1082 21.7542 14.5457C22.7125 15.3165 23.2021 16.2852 23.1084 17.2852Z" fill="#8DC53E"/>
</svg>
