<svg width="26" height="25" viewBox="0 0 26 25" fill="none" xmlns="http://www.w3.org/2000/svg">
<g clip-path="url(#clip0_36_91014)">
<path d="M9.74381 11.3255C9.63965 11.3151 9.51465 11.3151 9.40006 11.3255C6.9209 11.2422 4.95215 9.21094 4.95215 6.71094C4.95215 4.15885 7.01465 2.08594 9.57715 2.08594C12.1292 2.08594 14.2021 4.15885 14.2021 6.71094C14.1917 9.21094 12.223 11.2422 9.74381 11.3255Z" stroke="#8DC53E" stroke-width="0.9494" stroke-linecap="round" stroke-linejoin="round"/>
<path d="M17.2958 4.16895C19.3166 4.16895 20.9416 5.80436 20.9416 7.81478C20.9416 9.78353 19.3792 11.3877 17.4312 11.4606C17.3479 11.4502 17.2542 11.4502 17.1604 11.4606" stroke="#8DC53E" stroke-width="0.9494" stroke-linecap="round" stroke-linejoin="round"/>
<path d="M4.53552 15.1689C2.01469 16.8564 2.01469 19.6064 4.53552 21.2835C7.40011 23.2002 12.098 23.2002 14.9626 21.2835C17.4834 19.596 17.4834 16.846 14.9626 15.1689C12.1084 13.2627 7.41052 13.2627 4.53552 15.1689Z" stroke="#8DC53E" stroke-width="0.9494" stroke-linecap="round" stroke-linejoin="round"/>
<path d="M19.3064 20.835C20.0564 20.6787 20.7647 20.3766 21.3481 19.9287C22.9731 18.71 22.9731 16.6995 21.3481 15.4808C20.7751 15.0433 20.0772 14.7516 19.3376 14.585" stroke="#8DC53E" stroke-width="0.9494" stroke-linecap="round" stroke-linejoin="round"/>
</g>
<defs>
<clipPath id="clip0_36_91014">
<rect width="25" height="25" fill="white" transform="translate(0.202148 0.00195312)"/>
</clipPath>
</defs>
</svg>
