<svg width="26" height="25" viewBox="0 0 26 25" fill="none" xmlns="http://www.w3.org/2000/svg">
<path d="M15.8704 2.08594H10.9746C9.89128 2.08594 9.00586 2.96094 9.00586 4.04427V5.02344C9.00586 6.10677 9.88086 6.98177 10.9642 6.98177H15.8704C16.9538 6.98177 17.8288 6.10677 17.8288 5.02344V4.04427C17.8392 2.96094 16.9538 2.08594 15.8704 2.08594Z" fill="#8DC53E"/>
<path d="M18.8807 5.02307C18.8807 6.67932 17.5266 8.03349 15.8703 8.03349H10.9745C9.31824 8.03349 7.96407 6.67932 7.96407 5.02307C7.96407 4.43974 7.33907 4.07515 6.81824 4.34599C5.34949 5.12724 4.34949 6.67932 4.34949 8.46057V18.2627C4.34949 20.8252 6.44324 22.9189 9.00574 22.9189H17.8391C20.4016 22.9189 22.4953 20.8252 22.4953 18.2627V8.46057C22.4953 6.67932 21.4953 5.12724 20.0266 4.34599C19.5057 4.07515 18.8807 4.43974 18.8807 5.02307ZM13.8182 17.6585H9.25574C8.82865 17.6585 8.47449 17.3043 8.47449 16.8772C8.47449 16.4502 8.82865 16.096 9.25574 16.096H13.8182C14.2453 16.096 14.5995 16.4502 14.5995 16.8772C14.5995 17.3043 14.2453 17.6585 13.8182 17.6585ZM16.5474 13.4918H9.25574C8.82865 13.4918 8.47449 13.1377 8.47449 12.7106C8.47449 12.2835 8.82865 11.9293 9.25574 11.9293H16.5474C16.9745 11.9293 17.3287 12.2835 17.3287 12.7106C17.3287 13.1377 16.9745 13.4918 16.5474 13.4918Z" fill="#8DC53E"/>
</svg>
