<svg width="26" height="26" viewBox="0 0 26 26" fill="none" xmlns="http://www.w3.org/2000/svg">
<path d="M8.76147 12.7988H16.0531" stroke="#8DC53E" stroke-width="0.9494" stroke-miterlimit="10" stroke-linecap="round" stroke-linejoin="round"/>
<path d="M8.76147 16.9655H13.324" stroke="#8DC53E" stroke-width="0.9494" stroke-miterlimit="10" stroke-linecap="round" stroke-linejoin="round"/>
<path d="M10.8448 6.34098H15.0115C17.0948 6.34098 17.0948 5.29932 17.0948 4.25765C17.0948 2.17432 16.0531 2.17432 15.0115 2.17432H10.8448C9.80314 2.17432 8.76147 2.17432 8.76147 4.25765C8.76147 6.34098 9.80314 6.34098 10.8448 6.34098Z" stroke="#8DC53E" stroke-width="0.9494" stroke-miterlimit="10" stroke-linecap="round" stroke-linejoin="round"/>
<path d="M17.0949 4.27832C20.5636 4.46582 22.3032 5.74707 22.3032 10.5075V16.7575C22.3032 20.9242 21.2616 23.0075 16.0532 23.0075H9.80322C4.59489 23.0075 3.55322 20.9242 3.55322 16.7575V10.5075C3.55322 5.75749 5.29281 4.46582 8.76156 4.27832" stroke="#8DC53E" stroke-width="0.9494" stroke-miterlimit="10" stroke-linecap="round" stroke-linejoin="round"/>
</svg>
