<svg width="24" height="25" viewBox="0 0 24 25" fill="none" xmlns="http://www.w3.org/2000/svg">
<path d="M9 22.5898H15C20 22.5898 22 20.5898 22 15.5898V9.58984C22 4.58984 20 2.58984 15 2.58984H9C4 2.58984 2 4.58984 2 9.58984V15.5898C2 20.5898 4 22.5898 9 22.5898Z" stroke="#8DC53E" stroke-width="1.5" stroke-linecap="round" stroke-linejoin="round"/>
<path d="M9 10.5898C10.1046 10.5898 11 9.69441 11 8.58984C11 7.48527 10.1046 6.58984 9 6.58984C7.89543 6.58984 7 7.48527 7 8.58984C7 9.69441 7.89543 10.5898 9 10.5898Z" stroke="#8DC53E" stroke-width="1.5" stroke-linecap="round" stroke-linejoin="round"/>
<path d="M2.66992 19.5399L7.59992 16.2299C8.38992 15.6999 9.52992 15.7599 10.2399 16.3699L10.5699 16.6599C11.3499 17.3299 12.6099 17.3299 13.3899 16.6599L17.5499 13.0899C18.3299 12.4199 19.5899 12.4199 20.3699 13.0899L21.9999 14.4899" stroke="#8DC53E" stroke-width="1.5" stroke-linecap="round" stroke-linejoin="round"/>
</svg>
