<svg width="26" height="25" viewBox="0 0 26 25" fill="none" xmlns="http://www.w3.org/2000/svg">
<g clip-path="url(#clip0_36_91007)">
<path d="M19.1742 23.7005H7.11173C4.25757 23.7005 1.94507 21.3776 1.94507 18.5234V10.8047C1.94507 9.38799 2.82007 7.60674 3.94507 6.73174L9.55965 2.35674C11.2472 1.04424 13.9451 0.981744 15.6951 2.21091L22.1326 6.72133C23.3722 7.58591 24.3409 9.44008 24.3409 10.9505V18.5338C24.3409 21.3776 22.0284 23.7005 19.1742 23.7005ZM10.518 3.58591L4.9034 7.96091C4.16382 8.54424 3.50757 9.86716 3.50757 10.8047V18.5234C3.50757 20.513 5.12215 22.138 7.11173 22.138H19.1742C21.1638 22.138 22.7784 20.5234 22.7784 18.5338V10.9505C22.7784 9.95049 22.0597 8.56508 21.2367 8.00258L14.7992 3.49216C13.6117 2.65883 11.6534 2.70049 10.518 3.58591Z" fill="#8DC53E"/>
<path d="M13.1429 19.5332C12.7159 19.5332 12.3617 19.179 12.3617 18.752V15.627C12.3617 15.1999 12.7159 14.8457 13.1429 14.8457C13.57 14.8457 13.9242 15.1999 13.9242 15.627V18.752C13.9242 19.179 13.57 19.5332 13.1429 19.5332Z" fill="#8DC53E"/>
</g>
<defs>
<clipPath id="clip0_36_91007">
<rect width="25" height="25" fill="white" transform="translate(0.642944 0.00195312)"/>
</clipPath>
</defs>
</svg>
