<svg width="26" height="26" viewBox="0 0 26 26" fill="none" xmlns="http://www.w3.org/2000/svg">
<path d="M21.0238 7.19499L15.0238 2.99708C13.3883 1.85124 10.8779 1.91374 9.30501 3.13249L4.08626 7.20541C3.0446 8.01791 2.22168 9.68458 2.22168 10.9971V18.1846C2.22168 20.8408 4.37793 23.0075 7.03418 23.0075H18.2633C20.9196 23.0075 23.0758 20.8512 23.0758 18.195V11.1325C23.0758 9.72624 22.1696 7.99708 21.0238 7.19499ZM13.43 18.8408C13.43 19.2679 13.0758 19.6221 12.6488 19.6221C12.2217 19.6221 11.8675 19.2679 11.8675 18.8408V15.7158C11.8675 15.2887 12.2217 14.9346 12.6488 14.9346C13.0758 14.9346 13.43 15.2887 13.43 15.7158V18.8408Z" fill="#8DC53E"/>
</svg>
