<svg width="61" height="61" viewBox="0 0 61 61" fill="none" xmlns="http://www.w3.org/2000/svg">
<path d="M31.0024 17.2676C28.7333 15.1754 25.702 13.8975 22.3723 13.8975C15.3392 13.8975 9.6377 19.5989 9.6377 26.632C9.6377 27.146 9.66814 27.6529 9.72733 28.1509C11.7855 26.8051 14.2454 26.0227 16.888 26.0227C17.9597 26.0227 19.0028 26.1517 20.0021 26.3954C22.214 22.0029 26.1905 18.6492 31.0024 17.2676Z" fill="#FFD400"/>
<path d="M16.888 50.7016C10.4937 50.7016 5.31006 45.518 5.31006 39.1237C5.31006 32.7293 10.4937 27.5457 16.888 27.5457C18.2745 27.5457 19.604 27.7894 20.8362 28.2364C23.2672 22.2902 29.1096 18.1006 35.9306 18.1006C44.9331 18.1006 52.2311 25.3986 52.2311 34.4011C52.2311 34.7977 52.217 35.1909 52.1891 35.5804C54.9115 36.834 56.8013 39.5862 56.8013 42.7798C56.8013 47.1549 53.2547 50.7016 48.8796 50.7016H16.888Z" fill="white"/>
</svg>
