<svg width="61" height="61" viewBox="0 0 61 61" fill="none" xmlns="http://www.w3.org/2000/svg">
<path d="M42.167 39.2601C38.9195 38.9887 35.7743 37.9918 32.9634 36.343C30.1525 34.6941 27.7475 32.4354 25.9258 29.7333C24.1041 27.0312 22.9122 23.9547 22.4379 20.7305C21.9635 17.5064 22.2189 14.217 23.1852 11.1047C23.2423 10.9198 23.2413 10.7218 23.1824 10.5375C23.1235 10.3532 23.0096 10.1913 22.8559 10.0737C22.7022 9.95615 22.5161 9.88848 22.3228 9.87985C22.1295 9.87122 21.9382 9.92203 21.7746 10.0255C18.8788 11.6934 16.4058 14.0055 14.5471 16.7827C12.6883 19.5599 11.4938 22.7277 11.0559 26.0407C10.618 29.3537 10.9486 32.723 12.022 35.8878C13.0953 39.0525 14.8828 41.9277 17.2458 44.2907C19.6088 46.6538 22.484 48.4412 25.6488 49.5146C28.8135 50.5879 32.1828 50.9185 35.4958 50.4806C38.8088 50.0427 41.9766 48.8482 44.7538 46.9894C47.531 45.1307 49.8431 42.6577 51.5111 39.7619C51.6079 39.5985 51.6534 39.4098 51.6416 39.2202C51.6298 39.0307 51.5612 38.849 51.4448 38.6989C51.3284 38.5489 51.1696 38.4373 50.9889 38.3786C50.8083 38.32 50.6142 38.3171 50.4318 38.3702C47.7593 39.1934 44.9535 39.4956 42.167 39.2601Z" fill="#FFD400"/>
</svg>
