<svg width="61" height="61" viewBox="0 0 61 61" fill="none" xmlns="http://www.w3.org/2000/svg">
<path d="M29.9463 13.5149C30.3254 13.7343 30.8147 13.6317 31.0535 13.2646L31.9673 11.8603C32.2605 11.4098 32.1355 10.8052 31.6702 10.536C31.2049 10.2667 30.6157 10.4582 30.3713 10.937L29.6095 12.4291C29.4103 12.8192 29.5672 13.2955 29.9463 13.5149Z" fill="#FFD400"/>
<path d="M22.3722 11.4877C22.8103 11.4877 23.1833 11.1535 23.2058 10.716L23.2923 9.04003C23.3199 8.50477 22.9082 8.0459 22.3722 8.0459C21.8363 8.0459 21.4246 8.50477 21.4522 9.04003L21.5386 10.716C21.5612 11.1535 21.9342 11.4877 22.3722 11.4877Z" fill="#FFD400"/>
<path d="M14.7982 13.5149C15.1772 13.2955 15.3341 12.8192 15.135 12.4292L14.3732 10.937C14.1287 10.4582 13.5396 10.2667 13.0743 10.536C12.609 10.8052 12.4839 11.4098 12.7772 11.8604L13.6909 13.2646C13.9298 13.6317 14.4191 13.7343 14.7982 13.5149Z" fill="#FFD400"/>
<path d="M9.25562 19.0574C9.47498 18.6784 9.37242 18.1891 9.00535 17.9502L7.60107 17.0364C7.15048 16.7432 6.54594 16.8683 6.27668 17.3336C6.00742 17.7989 6.19889 18.388 6.67768 18.6324L8.16987 19.3943C8.55993 19.5934 9.03627 19.4365 9.25562 19.0574Z" fill="#FFD400"/>
<path d="M6.45674 25.7979C6.89418 25.8205 7.2284 26.1935 7.2284 26.6315C7.2284 27.0695 6.89418 27.4426 6.45673 27.4651L4.78075 27.5516C4.24549 27.5792 3.78662 27.1675 3.78662 26.6315C3.78662 26.0955 4.24549 25.6839 4.78075 25.7115L6.45674 25.7979Z" fill="#FFD400"/>
<path d="M31.0023 17.2671C28.7333 15.1749 25.702 13.8969 22.3722 13.8969C15.3391 13.8969 9.63766 19.5984 9.63766 26.6315C9.63766 27.1455 9.6681 27.6523 9.72729 28.1504C11.7854 26.8046 14.2453 26.0222 16.888 26.0222C17.9596 26.0222 19.0028 26.1511 20.002 26.3949C22.214 22.0024 26.1904 18.6487 31.0023 17.2671Z" fill="#FFD400"/>
<path d="M16.888 50.7016C10.4937 50.7016 5.31006 45.518 5.31006 39.1237C5.31006 32.7293 10.4937 27.5457 16.888 27.5457C18.2745 27.5457 19.604 27.7894 20.8362 28.2364C23.2672 22.2902 29.1096 18.1006 35.9306 18.1006C44.9331 18.1006 52.2311 25.3986 52.2311 34.4011C52.2311 34.7977 52.217 35.1909 52.1891 35.5804C54.9115 36.834 56.8013 39.5862 56.8013 42.7798C56.8013 47.1549 53.2547 50.7016 48.8796 50.7016H16.888Z" fill="white"/>
</svg>
