<svg width="61" height="61" viewBox="0 0 61 61" fill="none" xmlns="http://www.w3.org/2000/svg">
<g clip-path="url(#clip0_509_87626)">
<path d="M22.1533 13.5734C21.7438 15.5886 20.8987 17.4837 19.6803 19.1191C18.4619 20.7545 16.9012 22.0884 15.1135 23.0225C13.3257 23.9566 11.3564 24.4671 9.35075 24.5163C7.3451 24.5654 5.35427 24.1521 3.52505 23.3067C3.41634 23.2567 3.29531 23.2421 3.17826 23.2648C3.0612 23.2875 2.95375 23.3465 2.87037 23.4338C2.78699 23.5211 2.73168 23.6326 2.71191 23.7531C2.69213 23.8736 2.70882 23.9975 2.75975 24.108C3.56168 26.0519 4.78893 27.7804 6.34645 29.1595C7.90398 30.5386 9.74999 31.5314 11.7415 32.061C13.733 32.5906 15.8166 32.6427 17.831 32.2134C19.8453 31.784 21.7362 30.8847 23.3574 29.5851C24.9786 28.2855 26.2865 26.6205 27.1798 24.719C28.0732 22.8175 28.5279 20.7305 28.5089 18.6197C28.4899 16.5089 27.9977 14.4309 27.0703 12.5466C26.1429 10.6623 24.8052 9.02238 23.1609 7.75372C23.0684 7.68042 22.9564 7.63738 22.8397 7.6302C22.723 7.62302 22.6069 7.65202 22.5065 7.71344C22.406 7.77486 22.3259 7.86585 22.2765 7.9746C22.2271 8.08335 22.2108 8.20482 22.2296 8.32323C22.5321 10.0622 22.5062 11.8445 22.1533 13.5734Z" fill="#FFD400"/>
<path d="M18.3655 51.0001C11.9162 51.0001 6.68811 45.6358 6.68811 39.0186C6.68811 32.4014 11.9162 27.0371 18.3655 27.0371C19.7639 27.0371 21.1048 27.2893 22.3476 27.7518C24.7995 21.5983 30.6921 17.2627 37.5717 17.2627C46.6515 17.2627 54.0122 24.8151 54.0122 34.1314C54.0122 34.5418 53.9979 34.9488 53.9698 35.3518C56.7156 36.649 58.6216 39.4972 58.6216 42.8022C58.6216 47.3297 55.0445 51.0001 50.6319 51.0001H18.3655Z" fill="white"/>
</g>
<defs>
<clipPath id="clip0_509_87626">
<rect width="60.59" height="60.59" fill="white"/>
</clipPath>
</defs>
</svg>
