<svg width="21" height="20" viewBox="0 0 21 20" fill="none" xmlns="http://www.w3.org/2000/svg">
<g clip-path="url(#clip0_102_91472)">
<path d="M12.3335 13.5508C9.90716 12.5235 7.97771 10.5896 6.956 8.16083L9.78933 5.3225L4.57266 0.101667L1.93016 2.74333C1.47183 3.20429 1.10945 3.75155 0.863996 4.35346C0.618539 4.95537 0.494876 5.59999 0.500163 6.25C0.500163 12.29 8.21016 20 14.2502 20C14.9001 20.0057 15.5447 19.8822 16.1465 19.6367C16.7484 19.3912 17.2954 19.0286 17.756 18.57L20.3985 15.9275L15.1777 10.7067L12.3335 13.5508ZM16.5768 17.3917C16.2708 17.695 15.9075 17.9345 15.5081 18.0962C15.1086 18.2578 14.681 18.3385 14.2502 18.3333C9.05599 18.3333 2.16683 11.4442 2.16683 6.25C2.16192 5.81903 2.24263 5.39137 2.40428 4.99183C2.56593 4.59229 2.80529 4.22882 3.1085 3.9225L4.57266 2.45833L7.43683 5.3225L4.991 7.76833L5.19516 8.28C5.7962 9.88776 6.7358 11.3475 7.95029 12.5605C9.16478 13.7734 10.6258 14.7111 12.2343 15.31L12.7393 15.5025L15.1777 13.0633L18.0418 15.9275L16.5768 17.3917ZM12.1668 1.66667V0C14.3762 0.00242633 16.4944 0.881179 18.0567 2.44346C19.619 4.00573 20.4977 6.12394 20.5002 8.33333H18.8335C18.8315 6.56583 18.1285 4.87129 16.8787 3.62148C15.6289 2.37167 13.9343 1.66865 12.1668 1.66667ZM12.1668 5V3.33333C13.4925 3.33466 14.7635 3.86187 15.7009 4.79926C16.6383 5.73666 17.1655 7.00766 17.1668 8.33333H15.5002C15.5002 7.44928 15.149 6.60143 14.5239 5.97631C13.8987 5.35119 13.0509 5 12.1668 5Z" fill="#619143"/>
</g>
<defs>
<clipPath id="clip0_102_91472">
<rect width="20" height="20" fill="white" transform="translate(0.5)"/>
</clipPath>
</defs>
</svg>
