<svg width="256" height="256" viewBox="0 0 256 256" fill="none" xmlns="http://www.w3.org/2000/svg">
<path d="M79.4 246H61.4C33.1 246 10 222.9 10 194.6V175.7C10 173.1 12.1 171.1 14.6 171.1C17.2 171.1 19.2 173.2 19.2 175.7V194.6C19.2 217.8 38.1 236.7 61.3 236.7H79.3C81.9 236.7 83.9 238.8 83.9 241.3C84.1 243.9 82 246 79.4 246Z" fill="black"/>
<path d="M194.6 246H176.6C174 246 172 243.9 172 241.4C172 238.8 174.1 236.8 176.6 236.8H194.6C217.8 236.8 236.7 217.9 236.7 194.7V175.8C236.7 173.2 238.8 171.2 241.3 171.2C243.9 171.2 245.9 173.3 245.9 175.8V194.7C246 222.9 222.9 246 194.6 246Z" fill="black"/>
<path d="M241.4 83.1996C238.8 83.1996 236.8 81.0996 236.8 78.5996V61.3996C236.8 38.1996 217.9 19.2996 194.7 19.2996H176.7C174.1 19.2996 172.1 17.1996 172.1 14.6996C172.1 12.0996 174.2 10.0996 176.7 10.0996H194.7C223 10.0996 246.1 33.0996 246.1 61.4996V78.5996C246 81.0996 243.9 83.1996 241.4 83.1996Z" fill="black"/>
<path d="M14.6 84.1C12 84.1 10 82 10 79.5V61.5C10 33.1 33.1 10 61.4 10H79.4C82 10 84 12.1 84 14.6C84 17.2 81.9 19.2 79.4 19.2H61.4C38.2 19.2 19.3 38.1 19.3 61.3V79.3C19.3 82 17.2 84.1 14.6 84.1Z" fill="black"/>
</svg>
