<svg width="61" height="61" viewBox="0 0 61 61" fill="none" xmlns="http://www.w3.org/2000/svg">
<path d="M42.2657 27.6387H38.9437C38.3264 27.6387 37.7799 28.0374 37.5914 28.6252L34.4958 38.2821C34.202 39.1985 34.8857 40.1356 35.8481 40.1356H37.5435C38.0855 40.1356 38.5169 40.5897 38.489 41.131L37.9641 51.3253C37.951 51.5797 38.2939 51.6724 38.4108 51.446L45.6941 37.3353C46.1819 36.3901 45.4958 35.2639 44.4322 35.2639H43.0145C42.3689 35.2639 41.9126 34.6319 42.116 34.0191L43.6135 29.5059C43.9185 28.5868 43.2341 27.6387 42.2657 27.6387Z" fill="#FFD400"/>
<path d="M46.4733 39.2452L47.4485 37.3558C48.3107 35.6855 47.0982 33.6952 45.2185 33.6952H43.876L45.3112 29.3699C45.8502 27.7455 44.6408 26.07 42.9293 26.07H38.5944C37.5035 26.07 36.5376 26.7747 36.2046 27.8135L32.8019 38.4282C32.714 38.7022 32.6757 38.9773 32.6807 39.2452L15.7073 39.2452C9.12384 39.2452 3.78687 33.9082 3.78687 27.3247C3.78687 20.7412 9.12384 15.4043 15.7073 15.4043C17.1348 15.4043 18.5037 15.6552 19.7723 16.1153C22.2753 9.9932 28.2906 5.67969 35.3134 5.67969C44.5822 5.67969 52.0961 13.1936 52.0961 22.4624C52.0961 22.8708 52.0815 23.2757 52.0529 23.6767C54.8558 24.9673 56.8016 27.801 56.8016 31.0891C56.8016 35.5936 53.1499 39.2452 48.6454 39.2452H46.4733Z" fill="white"/>
<path d="M32.3926 52.0498L30.7647 48.6558L29.1365 52.0502C28.975 52.3331 28.8825 52.6619 28.8825 53.0126C28.8825 54.0714 29.7252 54.9297 30.7647 54.9297C31.8042 54.9297 32.6469 54.0714 32.6469 53.0126C32.6469 52.6617 32.5543 52.3327 32.3926 52.0498Z" fill="#64D2FF"/>
<path d="M26.7463 45.7763L25.1181 42.3818L23.4902 45.7759C23.3285 46.0588 23.2359 46.3878 23.2359 46.7387C23.2359 47.7975 24.0786 48.6558 25.1181 48.6558C26.1576 48.6558 27.0003 47.7975 27.0003 46.7387C27.0003 46.3879 26.9078 46.0592 26.7463 45.7763Z" fill="#64D2FF"/>
<path d="M21.0997 52.0501L19.4716 48.6558L17.8436 52.0499C17.682 52.3328 17.5894 52.6617 17.5894 53.0126C17.5894 54.0714 18.4321 54.9297 19.4716 54.9297C20.5111 54.9297 21.3538 54.0714 21.3538 53.0126C21.3538 52.6618 21.2613 52.333 21.0997 52.0501Z" fill="#64D2FF"/>
<path d="M15.4531 45.776L13.825 42.3818L12.197 45.7762C12.0354 46.0591 11.9429 46.3879 11.9429 46.7387C11.9429 47.7975 12.7856 48.6558 13.825 48.6558C14.8645 48.6558 15.7072 47.7975 15.7072 46.7387C15.7072 46.3878 15.6147 46.059 15.4531 45.776Z" fill="#64D2FF"/>
</svg>
