<svg width="61" height="61" viewBox="0 0 61 61" fill="none" xmlns="http://www.w3.org/2000/svg">
<path d="M15.7071 38.7716C9.12359 38.7716 3.78662 33.4346 3.78662 26.8511C3.78662 20.2676 9.12359 14.9306 15.7071 14.9306C17.1346 14.9306 18.5035 15.1816 19.7721 15.6417C22.275 9.51958 28.2903 5.20605 35.3131 5.20605C44.582 5.20605 52.0959 12.72 52.0959 21.9888C52.0959 22.3971 52.0813 22.802 52.0526 23.2031C54.8556 24.4937 56.8013 27.3273 56.8013 30.6155C56.8013 35.12 53.1497 38.7716 48.6452 38.7716H15.7071Z" fill="white"/>
<path d="M19.4612 42.0479L18.6 41.5L17.9614 41.0474C17.7738 41.2175 13.8589 48.1889 13.7202 48.4498C13.3017 49.2369 13.3579 50.0848 13.8456 50.3441C14.3332 50.6034 15.0676 50.1758 15.4861 49.3887C15.6248 49.1279 19.4252 42.2985 19.4612 42.0479Z" fill="#64D2FF"/>
<path d="M19.4612 42.0479L18.6 41.5L17.9614 41.0474C17.7738 41.2175 13.8589 48.1889 13.7202 48.4498C13.3017 49.2369 13.3579 50.0848 13.8456 50.3441C14.3332 50.6034 15.0676 50.1758 15.4861 49.3887C15.6248 49.1279 19.4252 42.2985 19.4612 42.0479Z" fill="#64D2FF"/>
<path d="M19.4612 42.0479L18.6 41.5L17.9614 41.0474C17.7738 41.2175 13.8589 48.1889 13.7202 48.4498C13.3017 49.2369 13.3579 50.0848 13.8456 50.3441C14.3332 50.6034 15.0676 50.1758 15.4861 49.3887C15.6248 49.1279 19.4252 42.2985 19.4612 42.0479Z" fill="#64D2FF"/>
<path d="M31.4985 42.127L30.6374 41.5791L29.9987 41.1266C29.8111 41.2966 25.8963 48.2681 25.7576 48.5289C25.3391 49.316 25.3953 50.1639 25.8829 50.4232C26.3705 50.6825 27.105 50.2549 27.5235 49.4678C27.6621 49.207 31.4625 42.3776 31.4985 42.127Z" fill="#64D2FF"/>
<path d="M31.4985 42.127L30.6374 41.5791L29.9987 41.1266C29.8111 41.2966 25.8963 48.2681 25.7576 48.5289C25.3391 49.316 25.3953 50.1639 25.8829 50.4232C26.3705 50.6825 27.105 50.2549 27.5235 49.4678C27.6621 49.207 31.4625 42.3776 31.4985 42.127Z" fill="#64D2FF"/>
<path d="M31.4985 42.127L30.6374 41.5791L29.9987 41.1266C29.8111 41.2966 25.8963 48.2681 25.7576 48.5289C25.3391 49.316 25.3953 50.1639 25.8829 50.4232C26.3705 50.6825 27.105 50.2549 27.5235 49.4678C27.6621 49.207 31.4625 42.3776 31.4985 42.127Z" fill="#64D2FF"/>
<path d="M43.4985 42.127L42.6374 41.5791L41.9987 41.1266C41.8111 41.2966 37.8963 48.2681 37.7576 48.5289C37.3391 49.316 37.3953 50.1639 37.8829 50.4232C38.3705 50.6825 39.105 50.2549 39.5235 49.4678C39.6621 49.207 43.4625 42.3776 43.4985 42.127Z" fill="#64D2FF"/>
<path d="M43.4985 42.127L42.6374 41.5791L41.9987 41.1266C41.8111 41.2966 37.8963 48.2681 37.7576 48.5289C37.3391 49.316 37.3953 50.1639 37.8829 50.4232C38.3705 50.6825 39.105 50.2549 39.5235 49.4678C39.6621 49.207 43.4625 42.3776 43.4985 42.127Z" fill="#64D2FF"/>
<path d="M43.4985 42.127L42.6374 41.5791L41.9987 41.1266C41.8111 41.2966 37.8963 48.2681 37.7576 48.5289C37.3391 49.316 37.3953 50.1639 37.8829 50.4232C38.3705 50.6825 39.105 50.2549 39.5235 49.4678C39.6621 49.207 43.4625 42.3776 43.4985 42.127Z" fill="#64D2FF"/>
<path d="M22.4985 48.127L21.6374 47.5791L20.9987 47.1266C20.8111 47.2966 16.8963 54.2681 16.7576 54.5289C16.3391 55.316 16.3953 56.1639 16.8829 56.4232C17.3705 56.6825 18.105 56.2549 18.5235 55.4678C18.6621 55.207 22.4625 48.3776 22.4985 48.127Z" fill="#64D2FF"/>
<path d="M22.4985 48.127L21.6374 47.5791L20.9987 47.1266C20.8111 47.2966 16.8963 54.2681 16.7576 54.5289C16.3391 55.316 16.3953 56.1639 16.8829 56.4232C17.3705 56.6825 18.105 56.2549 18.5235 55.4678C18.6621 55.207 22.4625 48.3776 22.4985 48.127Z" fill="#64D2FF"/>
<path d="M22.4985 48.127L21.6374 47.5791L20.9987 47.1266C20.8111 47.2966 16.8963 54.2681 16.7576 54.5289C16.3391 55.316 16.3953 56.1639 16.8829 56.4232C17.3705 56.6825 18.105 56.2549 18.5235 55.4678C18.6621 55.207 22.4625 48.3776 22.4985 48.127Z" fill="#64D2FF"/>
<path d="M34.5359 48.2061L33.6747 47.6582L33.0361 47.2057C32.8485 47.3757 28.9336 54.3472 28.7949 54.608C28.3764 55.3951 28.4326 56.243 28.9203 56.5023C29.4079 56.7616 30.1423 56.334 30.5608 55.5469C30.6995 55.2861 34.4999 48.4567 34.5359 48.2061Z" fill="#64D2FF"/>
<path d="M34.5359 48.2061L33.6747 47.6582L33.0361 47.2057C32.8485 47.3757 28.9336 54.3472 28.7949 54.608C28.3764 55.3951 28.4326 56.243 28.9203 56.5023C29.4079 56.7616 30.1423 56.334 30.5608 55.5469C30.6995 55.2861 34.4999 48.4567 34.5359 48.2061Z" fill="#64D2FF"/>
<path d="M34.5359 48.2061L33.6747 47.6582L33.0361 47.2057C32.8485 47.3757 28.9336 54.3472 28.7949 54.608C28.3764 55.3951 28.4326 56.243 28.9203 56.5023C29.4079 56.7616 30.1423 56.334 30.5608 55.5469C30.6995 55.2861 34.4999 48.4567 34.5359 48.2061Z" fill="#64D2FF"/>
<path d="M46.5359 48.2061L45.6747 47.6582L45.0361 47.2057C44.8485 47.3757 40.9336 54.3472 40.7949 54.608C40.3764 55.3951 40.4326 56.243 40.9203 56.5023C41.4079 56.7616 42.1423 56.334 42.5608 55.5469C42.6995 55.2861 46.4999 48.4567 46.5359 48.2061Z" fill="#64D2FF"/>
<path d="M46.5359 48.2061L45.6747 47.6582L45.0361 47.2057C44.8485 47.3757 40.9336 54.3472 40.7949 54.608C40.3764 55.3951 40.4326 56.243 40.9203 56.5023C41.4079 56.7616 42.1423 56.334 42.5608 55.5469C42.6995 55.2861 46.4999 48.4567 46.5359 48.2061Z" fill="#64D2FF"/>
<path d="M46.5359 48.2061L45.6747 47.6582L45.0361 47.2057C44.8485 47.3757 40.9336 54.3472 40.7949 54.608C40.3764 55.3951 40.4326 56.243 40.9203 56.5023C41.4079 56.7616 42.1423 56.334 42.5608 55.5469C42.6995 55.2861 46.4999 48.4567 46.5359 48.2061Z" fill="#64D2FF"/>
</svg>
