<svg width="22" height="22" viewBox="0 0 22 22" fill="none" xmlns="http://www.w3.org/2000/svg">
<path d="M2.53467 8.2478V6.4978C2.53467 3.8728 4.28467 2.1228 6.90967 2.1228H15.6597C18.2847 2.1228 20.0347 3.8728 20.0347 6.4978V8.2478" stroke="white" stroke-width="1.5" stroke-miterlimit="10" stroke-linecap="round" stroke-linejoin="round"/>
<path d="M2.53467 13.4978V15.2478C2.53467 17.8728 4.28467 19.6228 6.90967 19.6228H15.6597C18.2847 19.6228 20.0347 17.8728 20.0347 15.2478V13.4978" stroke="white" stroke-width="1.5" stroke-miterlimit="10" stroke-linecap="round" stroke-linejoin="round"/>
<path d="M6.64722 8.47534L11.2847 11.1616L15.8872 8.49286" stroke="white" stroke-width="1.5" stroke-linecap="round" stroke-linejoin="round"/>
<path d="M11.2847 15.9216V11.1528" stroke="white" stroke-width="1.5" stroke-linecap="round" stroke-linejoin="round"/>
<path d="M10.1996 5.87654L7.39962 7.43407C6.76962 7.78407 6.24463 8.66781 6.24463 9.39406V12.3603C6.24463 13.0866 6.76087 13.9703 7.39962 14.3203L10.1996 15.8778C10.7946 16.2103 11.7746 16.2103 12.3784 15.8778L15.1784 14.3203C15.8084 13.9703 16.3334 13.0866 16.3334 12.3603V9.39406C16.3334 8.66781 15.8171 7.78407 15.1784 7.43407L12.3784 5.87654C11.7746 5.53529 10.7946 5.53529 10.1996 5.87654Z" stroke="white" stroke-width="1.5" stroke-linecap="round" stroke-linejoin="round"/>
</svg>
