<svg width="22" height="22" viewBox="0 0 22 22" fill="none" xmlns="http://www.w3.org/2000/svg">
<path d="M19.385 16.4099L16.3443 13.3649L14.0055 12.3973C14.7843 11.2883 15.2015 9.9652 15.2 8.60944C15.2 4.96497 12.2392 2 8.59998 2C4.96073 2 2 4.96497 2 8.60944C2 12.2539 4.96073 15.2189 8.59998 15.2189C9.96559 15.2204 11.2977 14.7954 12.4107 14.003L13.3744 16.3388L16.415 19.384C16.61 19.5793 16.8415 19.7342 17.0963 19.8399C17.351 19.9456 17.6241 20 17.8999 20C18.1757 20 18.4488 19.9456 18.7036 19.8399C18.9583 19.7343 19.1899 19.5794 19.3849 19.3841C19.5799 19.1888 19.7346 18.957 19.8401 18.7018C19.9457 18.4467 20 18.1732 20 17.897C20 17.6208 19.9457 17.3474 19.8402 17.0922C19.7346 16.8371 19.58 16.6052 19.385 16.4099ZM3.2 8.60944C3.2 5.62768 5.62249 3.20172 8.59998 3.20172C11.5775 3.20172 14 5.62768 14 8.60944C14 11.5912 11.5775 14.0172 8.59998 14.0172C5.62249 14.0172 3.2 11.5912 3.2 8.60944ZM18.5364 18.5343C18.3675 18.703 18.1386 18.7978 17.9 18.7978C17.6613 18.7978 17.4325 18.703 17.2636 18.5343L14.3921 15.6587L13.4961 13.4868L15.665 14.3841L18.5364 17.2597C18.705 17.4288 18.7996 17.658 18.7996 17.897C18.7996 18.1359 18.7049 18.3651 18.5364 18.5343Z" fill="#619143"/>
</svg>
