<svg width="62" height="61" viewBox="0 0 62 61" fill="none" xmlns="http://www.w3.org/2000/svg">
<path d="M16.3101 38.7716C9.72662 38.7716 4.38965 33.4346 4.38965 26.8511C4.38965 20.2676 9.72662 14.9306 16.3101 14.9306C17.7376 14.9306 19.1065 15.1816 20.3751 15.6417C22.878 9.51958 28.8933 5.20605 35.9161 5.20605C45.185 5.20605 52.6989 12.72 52.6989 21.9888C52.6989 22.3971 52.6843 22.802 52.6556 23.2031C55.4586 24.4937 57.4043 27.3273 57.4043 30.6155C57.4043 35.12 53.7527 38.7716 49.2482 38.7716H16.3101Z" fill="white"/>
<path d="M44.6023 45.3025L42.9743 41.9082L41.3461 45.3026C41.1846 45.5855 41.0921 45.9143 41.0921 46.2651C41.0921 47.3238 41.9348 48.1821 42.9743 48.1821C44.0138 48.1821 44.8564 47.3238 44.8564 46.2651C44.8564 45.9142 44.7639 45.5854 44.6023 45.3025Z" fill="#64D2FF"/>
<path d="M38.9559 52.204L37.3277 48.8095L35.6997 52.2037C35.5381 52.4866 35.4455 52.8155 35.4455 53.1664C35.4455 54.2252 36.2882 55.0835 37.3277 55.0835C38.3672 55.0835 39.2099 54.2252 39.2099 53.1664C39.2099 52.8156 39.1174 52.4869 38.9559 52.204Z" fill="#64D2FF"/>
<path d="M33.3093 45.3026L31.6812 41.9082L30.0531 45.3025C29.8915 45.5854 29.799 45.9142 29.799 46.2651C29.799 47.3238 30.6417 48.1821 31.6812 48.1821C32.7207 48.1821 33.5634 47.3238 33.5634 46.2651C33.5634 45.9143 33.4708 45.5855 33.3093 45.3026Z" fill="#64D2FF"/>
<path d="M27.9764 52.2038L26.3483 48.8095L24.7202 52.2039C24.5587 52.4868 24.4662 52.8156 24.4662 53.1664C24.4662 54.2252 25.3088 55.0835 26.3483 55.0835C27.3878 55.0835 28.2305 54.2252 28.2305 53.1664C28.2305 52.8155 28.138 52.4867 27.9764 52.2038Z" fill="#64D2FF"/>
<path d="M22.33 45.3027L20.7018 41.9082L19.0738 45.3025C18.9122 45.5854 18.8196 45.9142 18.8196 46.2651C18.8196 47.3238 19.6623 48.1821 20.7018 48.1821C21.7413 48.1821 22.584 47.3238 22.584 46.2651C22.584 45.9143 22.4915 45.5855 22.33 45.3027Z" fill="#64D2FF"/>
<path d="M16.6833 52.2039L15.0553 48.8095L13.4272 52.2038C13.2656 52.4867 13.1731 52.8156 13.1731 53.1664C13.1731 54.2252 14.0158 55.0835 15.0553 55.0835C16.0948 55.0835 16.9375 54.2252 16.9375 53.1664C16.9375 52.8156 16.8449 52.4867 16.6833 52.2039Z" fill="#64D2FF"/>
</svg>
