<svg width="62" height="61" viewBox="0 0 62 61" fill="none" xmlns="http://www.w3.org/2000/svg">
<path fill-rule="evenodd" clip-rule="evenodd" d="M53.802 31.4824C53.1781 31.4502 52.7014 30.9182 52.7014 30.2935C52.7014 29.6688 53.1781 29.1367 53.802 29.1046L56.1923 28.9813C56.9557 28.9419 57.6102 29.5291 57.6102 30.2935C57.6102 31.0579 56.9557 31.645 56.1923 31.6057L53.802 31.4824ZM49.8101 19.4911C50.123 20.0317 50.8023 20.2555 51.3586 19.9715L53.4868 18.885C54.1697 18.5363 54.4428 17.6961 54.0588 17.0325C53.6747 16.3689 52.8125 16.1905 52.1699 16.6087L50.1671 17.912C49.6435 18.2527 49.4973 18.9505 49.8101 19.4911ZM41.9052 11.5862C42.4458 11.899 43.1436 11.7528 43.4843 11.2292L44.7876 9.22642C45.2058 8.58378 45.0274 7.72156 44.3638 7.33753C43.7002 6.9535 42.8599 7.22658 42.5113 7.90945L41.4248 10.0377C41.1407 10.594 41.3645 11.2733 41.9052 11.5862ZM31.1028 8.6949C31.7275 8.6949 32.2596 8.21822 32.2917 7.59433L32.415 5.20399C32.4544 4.44059 31.8672 3.78613 31.1028 3.78613C30.3384 3.78613 29.7512 4.44059 29.7906 5.20399L29.9139 7.59433C29.9461 8.21822 30.4781 8.6949 31.1028 8.6949ZM20.3004 11.5862C20.8411 11.2733 21.0649 10.594 20.7809 10.0377L19.6943 7.90945C19.3457 7.22658 18.5054 6.9535 17.8418 7.33753C17.1782 7.72156 16.9998 8.58378 17.418 9.22642L18.7213 11.2292C19.062 11.7528 19.7598 11.899 20.3004 11.5862ZM12.3955 19.4911C12.7084 18.9505 12.5621 18.2527 12.0386 17.912L10.0357 16.6087C9.3931 16.1905 8.53088 16.3689 8.14686 17.0325C7.76283 17.6961 8.03591 18.5363 8.71878 18.885L10.847 19.9715C11.4033 20.2556 12.0827 20.0317 12.3955 19.4911ZM8.40365 29.1046C9.02755 29.1367 9.50423 29.6688 9.50423 30.2935C9.50423 30.9182 9.02755 31.4502 8.40365 31.4824L6.01332 31.6057C5.24992 31.645 4.59546 31.0579 4.59546 30.2935C4.59546 29.5291 5.24992 28.9419 6.01332 28.9813L8.40365 29.1046ZM12.3955 41.0958C12.0827 40.5552 11.4033 40.3314 10.847 40.6154L8.71878 41.702C8.03591 42.0506 7.76283 42.8909 8.14686 43.5545C8.53088 44.2181 9.3931 44.3965 10.0357 43.9783L12.0386 42.675C12.5621 42.3343 12.7084 41.6365 12.3955 41.0958ZM20.3004 49.0008C19.7598 48.6879 19.062 48.8342 18.7213 49.3577L17.418 51.3605C16.9998 52.0032 17.1782 52.8654 17.8418 53.2494C18.5054 53.6335 19.3457 53.3604 19.6943 52.6775L20.7809 50.5493C21.0649 49.993 20.8411 49.3136 20.3004 49.0008ZM31.1028 51.8921C30.4781 51.8921 29.9461 52.3687 29.9139 52.9926L29.7906 55.383C29.7512 56.1464 30.3384 56.8008 31.1028 56.8008C31.8672 56.8008 32.4544 56.1464 32.415 55.383L32.2917 52.9926C32.2596 52.3687 31.7275 51.8921 31.1028 51.8921ZM41.9052 49.0008C41.3645 49.3136 41.1407 49.993 41.4248 50.5493L42.5113 52.6775C42.8599 53.3604 43.7002 53.6335 44.3638 53.2494C45.0274 52.8654 45.2058 52.0032 44.7876 51.3605L43.4843 49.3577C43.1436 48.8342 42.4458 48.6879 41.9052 49.0008ZM49.8101 41.0958C49.4973 41.6365 49.6435 42.3343 50.1671 42.675L52.1699 43.9783C52.8125 44.3965 53.6747 44.2181 54.0588 43.5545C54.4428 42.8909 54.1697 42.0506 53.4868 41.702L51.3586 40.6154C50.8023 40.3314 50.123 40.5552 49.8101 41.0958Z" fill="#FFD400"/>
<path d="M49.2653 30.2933C49.2653 40.3241 41.1337 48.4557 31.1029 48.4557C21.072 48.4557 12.9404 40.3241 12.9404 30.2933C12.9404 20.2625 21.072 12.1309 31.1029 12.1309C41.1337 12.1309 49.2653 20.2625 49.2653 30.2933Z" fill="#FFD400"/>
</svg>
