<svg width="25" height="25" viewBox="0 0 25 25" fill="none" xmlns="http://www.w3.org/2000/svg">
<path d="M21.5 6.66211C18.17 6.33211 14.82 6.16211 11.48 6.16211C9.5 6.16211 7.52 6.26211 5.54 6.46211L3.5 6.66211" stroke="#E52020" stroke-width="1.5" stroke-linecap="round" stroke-linejoin="round"/>
<path d="M9 5.65213L9.22 4.34213C9.38 3.39213 9.5 2.68213 11.19 2.68213H13.81C15.5 2.68213 15.63 3.43213 15.78 4.35213L16 5.65213" stroke="#E52020" stroke-width="1.5" stroke-linecap="round" stroke-linejoin="round"/>
<path d="M19.3499 9.82214L18.6999 19.8921C18.5899 21.4621 18.4999 22.6821 15.7099 22.6821H9.2899C6.4999 22.6821 6.4099 21.4621 6.2999 19.8921L5.6499 9.82214" stroke="#E52020" stroke-width="1.5" stroke-linecap="round" stroke-linejoin="round"/>
<path d="M10.8301 17.1821H14.1601" stroke="#E52020" stroke-width="1.5" stroke-linecap="round" stroke-linejoin="round"/>
<path d="M10 13.1821H15" stroke="#E52020" stroke-width="1.5" stroke-linecap="round" stroke-linejoin="round"/>
</svg>
