<svg width="21" height="20" viewBox="0 0 21 20" fill="none" xmlns="http://www.w3.org/2000/svg">
<path d="M10.4999 9.99984C12.8011 9.99984 14.6666 8.13436 14.6666 5.83317C14.6666 3.53198 12.8011 1.6665 10.4999 1.6665C8.19873 1.6665 6.33325 3.53198 6.33325 5.83317C6.33325 8.13436 8.19873 9.99984 10.4999 9.99984Z" stroke="#619143" stroke-width="1.5" stroke-linecap="round" stroke-linejoin="round"/>
<path d="M16.5083 13.1167L13.5583 16.0667C13.4416 16.1834 13.3333 16.4 13.3083 16.5584L13.1499 17.6833C13.0916 18.0917 13.375 18.375 13.7833 18.3167L14.9083 18.1583C15.0666 18.1333 15.2916 18.025 15.4 17.9084L18.3499 14.9584C18.8583 14.45 19.0999 13.8583 18.3499 13.1083C17.6083 12.3667 17.0166 12.6083 16.5083 13.1167Z" stroke="#619143" stroke-width="1.5" stroke-miterlimit="10" stroke-linecap="round" stroke-linejoin="round"/>
<path d="M16.0833 13.5415C16.3333 14.4415 17.0332 15.1415 17.9332 15.3915" stroke="#619143" stroke-width="1.5" stroke-miterlimit="10" stroke-linecap="round" stroke-linejoin="round"/>
<path d="M3.34155 18.3333C3.34155 15.1083 6.54991 12.5 10.4999 12.5C11.3666 12.5 12.1999 12.625 12.9749 12.8583" stroke="#619143" stroke-width="1.5" stroke-linecap="round" stroke-linejoin="round"/>
</svg>
